<svg id="Ebene_1" data-name="Ebene 1" xmlns="http://www.w3.org/2000/svg" viewBox="0 0 700 200"><defs><style>.cls-1,.cls-3,.cls-4,.cls-5,.cls-6{stroke:#000;stroke-miterlimit:10;}.cls-2{fill:#56b3e5;}.cls-3{fill:#88c057;}.cls-3,.cls-4,.cls-5{stroke-linecap:round;}.cls-3,.cls-4,.cls-5,.cls-6{stroke-width:2px;}.cls-4{fill:#ffcc67;}.cls-5{fill:#ed7161;}.cls-6{fill:#ededed;}</style></defs><title>Zeichenfläche 1</title><path class="cls-1" d="M223,128.63c2.88-.22,5.4-1,6.91-2.67,1.73-2,2.38-4.75,2.38-13.1V83.7h6.33v31.61c0,6.77-1.08,11.16-4.17,14.33-2.81,2.8-7.42,4-10.8,4ZM239.29,73.9a3.72,3.72,0,0,1-4,3.89,3.79,3.79,0,0,1-3.89-3.89,3.88,3.88,0,0,1,4-4A3.74,3.74,0,0,1,239.29,73.9Z"/><path class="cls-1" d="M289.19,125.68c-6.55-1.73-13-3.68-18.58-5.62a9.21,9.21,0,0,0-2.95-.72c-11.52-.43-21.38-8.93-21.38-24.56s9.5-25.56,22.61-25.56,21.74,10.23,21.74,24.56c0,12.45-5.76,20.45-13.82,23.26v.28c4.82,1.23,10.08,2.38,14.18,3.1ZM284,94.06c0-9.72-5-19.73-15.34-19.73-10.59,0-15.77,9.8-15.7,20.31-.07,10.3,5.62,19.59,15.41,19.59C278.39,114.23,284,105.15,284,94.06Z"/><path class="cls-1" d="M305.6,103.28l-5,15.27h-6.48L310.57,70h7.56l16.57,48.54H328l-5.19-15.27Zm15.92-4.89-4.75-14c-1.08-3.17-1.81-6-2.52-8.86h-.15c-.72,2.88-1.51,5.83-2.45,8.78l-4.75,14Z"/><path class="cls-1" d="M356.08,96.73v4.68H338.29V96.73Z"/><path class="cls-1" d="M363.71,70.66a90.54,90.54,0,0,1,13.32-1c9,0,15.41,2.09,19.66,6s6.84,9.58,6.84,17.43-2.45,14.4-7,18.86-12,7-21.45,7a101,101,0,0,1-11.38-.58ZM370,113.58a39.41,39.41,0,0,0,6.34.36c13.39,0,20.67-7.49,20.67-20.6.07-11.44-6.41-18.72-19.66-18.72a35.66,35.66,0,0,0-7.35.65Z"/><path class="cls-1" d="M430.74,118.55l-.5-4.4H430a13,13,0,0,1-10.66,5.19c-7.05,0-10.65-5-10.65-10,0-8.42,7.49-13,21-13v-.72c0-2.88-.79-8.07-7.92-8.07a17.31,17.31,0,0,0-9.07,2.6L411.23,86a21.63,21.63,0,0,1,11.45-3.1c10.65,0,13.25,7.28,13.25,14.26v13a49.4,49.4,0,0,0,.57,8.36Zm-.93-17.79c-6.92-.14-14.77,1.08-14.77,7.85,0,4.1,2.74,6,6,6a8.68,8.68,0,0,0,8.43-5.83,6.83,6.83,0,0,0,.36-2Z"/><path class="cls-1" d="M445.28,112.07a16.7,16.7,0,0,0,8.36,2.52c4.6,0,6.76-2.31,6.76-5.19s-1.8-4.68-6.48-6.41c-6.26-2.23-9.21-5.68-9.21-9.86,0-5.62,4.53-10.23,12-10.23a17.41,17.41,0,0,1,8.57,2.16l-1.58,4.61a13.62,13.62,0,0,0-7.13-2c-3.75,0-5.83,2.16-5.83,4.75,0,2.88,2.08,4.17,6.62,5.9,6.05,2.31,9.14,5.33,9.14,10.52,0,6.12-4.75,10.44-13,10.44a19.89,19.89,0,0,1-9.79-2.38Z"/><path class="cls-1" d="M474.66,67.42H481V89.17h.14a11.76,11.76,0,0,1,4.54-4.47,13,13,0,0,1,6.48-1.8c4.68,0,12.17,2.88,12.17,14.91v20.74H498v-20c0-5.62-2.09-10.37-8.07-10.37a9.1,9.1,0,0,0-8.49,6.34,7.65,7.65,0,0,0-.43,3v21h-6.34Z"/><path class="cls-1" d="M514.33,118.55c.14-2.38.29-5.91.29-9V67.42h6.26V89.31H521c2.23-3.89,6.26-6.41,11.88-6.41,8.64,0,14.76,7.2,14.69,17.79,0,12.46-7.85,18.65-15.63,18.65-5,0-9.07-2-11.66-6.55h-.22l-.29,5.76Zm6.55-14a12.16,12.16,0,0,0,.29,2.3,9.78,9.78,0,0,0,9.5,7.42c6.63,0,10.59-5.4,10.59-13.39,0-7-3.6-13-10.37-13a10.12,10.12,0,0,0-9.65,7.78,12.82,12.82,0,0,0-.36,2.59Z"/><path class="cls-1" d="M587.12,100.83c0,12.89-8.93,18.51-17.35,18.51-9.43,0-16.71-6.91-16.71-17.93,0-11.67,7.64-18.51,17.29-18.51C580.35,82.9,587.12,90.18,587.12,100.83Zm-27.65.36c0,7.64,4.4,13.4,10.59,13.4s10.58-5.69,10.58-13.54c0-5.9-2.95-13.39-10.44-13.39S559.47,94.57,559.47,101.19Z"/><path class="cls-1" d="M614.41,118.55l-.5-4.4h-.22A13,13,0,0,1,603,119.34c-7,0-10.65-5-10.65-10,0-8.42,7.48-13,21-13v-.72c0-2.88-.79-8.07-7.92-8.07a17.28,17.28,0,0,0-9.07,2.6L594.9,86a21.62,21.62,0,0,1,11.44-3.1c10.66,0,13.25,7.28,13.25,14.26v13a49.33,49.33,0,0,0,.58,8.36Zm-.94-17.79c-6.91-.14-14.76,1.08-14.76,7.85,0,4.1,2.74,6,6,6a8.65,8.65,0,0,0,8.42-5.83,6.52,6.52,0,0,0,.36-2Z"/><path class="cls-1" d="M629.82,94.57c0-4.11-.08-7.63-.29-10.87h5.54l.22,6.84h.29c1.58-4.68,5.4-7.64,9.64-7.64a7,7,0,0,1,1.8.22v6a9.09,9.09,0,0,0-2.16-.22c-4.46,0-7.63,3.38-8.49,8.14a17.13,17.13,0,0,0-.29,3v18.58h-6.26Z"/><path class="cls-1" d="M682.74,67.42v42.13c0,3.09.07,6.62.29,9h-5.69l-.29-6h-.14c-1.95,3.89-6.2,6.84-11.89,6.84-8.42,0-14.9-7.13-14.9-17.71-.07-11.6,7.13-18.73,15.62-18.73,5.33,0,8.93,2.52,10.52,5.33h.14V67.42ZM676.4,97.88a11,11,0,0,0-.29-2.66A9.31,9.31,0,0,0,667,87.87c-6.55,0-10.44,5.76-10.44,13.47,0,7,3.45,12.89,10.29,12.89a9.53,9.53,0,0,0,9.29-7.56,10.87,10.87,0,0,0,.29-2.74Z"/><path class="cls-2" d="M38.78,150.83a79.66,79.66,0,1,1,159.32,0"/><rect class="cls-3" x="105.53" y="91.37" width="27.03" height="60.54"/><rect class="cls-4" x="146.61" y="51.37" width="27.03" height="100.54"/><rect class="cls-5" x="63.36" y="27.58" width="27.03" height="124.32"/><rect class="cls-6" x="38.5" y="151.91" width="160" height="0.02"/></svg>